<?xml version="1.0" standalone="no"?>
<!DOCTYPE svg PUBLIC "-//W3C//DTD SVG 20010904//EN"
 "http://www.w3.org/TR/2001/REC-SVG-20010904/DTD/svg10.dtd">
<svg version="1.0" xmlns="http://www.w3.org/2000/svg"
 width="512.000000pt" height="512.000000pt" viewBox="0 0 512.000000 512.000000"
 preserveAspectRatio="xMidYMid meet">
<metadata>
Created by potrace 1.16, written by Peter Selinger 2001-2019
</metadata>
<g transform="translate(0.000000,512.000000) scale(0.100000,-0.100000)"
fill="#1e88e5" stroke="none">
<path d="M2245 4944 c-526 -71 -1008 -308 -1380 -679 -381 -379 -619 -862
-690 -1398 -20 -155 -20 -459 0 -614 70 -528 304 -1008 675 -1383 265 -268
592 -471 945 -589 269 -89 472 -121 765 -121 292 0 493 32 765 121 866 284
1499 1055 1620 1972 20 155 20 459 0 614 -58 442 -233 853 -512 1203 -86 109
-265 286 -371 370 -353 276 -758 448 -1195 505 -146 19 -481 18 -622 -1z m659
-1234 c199 -20 346 -80 451 -185 105 -106 155 -237 155 -409 0 -198 -68 -332
-216 -428 -35 -22 -64 -42 -64 -43 0 -1 29 -16 64 -34 78 -38 158 -109 201
-176 123 -194 121 -477 -6 -692 -54 -91 -171 -202 -259 -245 -169 -83 -232
-90 -937 -95 l-603 -5 0 1161 0 1161 558 0 c306 0 602 -5 656 -10z"/>
<path d="M2150 3060 l0 -260 313 0 c346 0 417 9 497 58 27 17 55 45 70 72 22
39 25 57 25 135 0 107 -22 160 -84 201 -66 43 -160 53 -508 54 l-313 0 0 -260z"/>
<path d="M2150 2114 l0 -315 363 3 c416 5 426 6 508 88 59 59 82 125 83 235 1
98 -15 145 -66 201 -81 88 -172 104 -605 104 l-283 0 0 -316z"/>
</g>
</svg>
